<svg width="17" height="16" viewBox="0 0 17 16" fill="none" xmlns="http://www.w3.org/2000/svg">
<path fill-rule="evenodd" clip-rule="evenodd" d="M8.79411 12.18L10.9931 13.4739C11.7532 13.9212 12.6781 13.2371 12.4728 12.3794L11.8987 9.98L13.7839 8.38781C14.4651 7.81249 14.1097 6.70073 13.2211 6.62723L10.7157 6.42L9.71119 4.10951C9.36264 3.30776 8.22557 3.30777 7.87702 4.10951L6.87256 6.42L4.36713 6.62723C3.47852 6.70073 3.12312 7.81249 3.80433 8.38781L5.68955 9.98L5.11541 12.3794C4.91016 13.2371 5.83498 13.9212 6.59509 13.4739L8.79411 12.18Z" fill="#9B8869"/>
<mask id="mask0" mask-type="alpha" maskUnits="userSpaceOnUse" x="3" y="3" width="12" height="11">
<path fill-rule="evenodd" clip-rule="evenodd" d="M8.79411 12.18L10.9931 13.4739C11.7532 13.9212 12.6781 13.2371 12.4728 12.3794L11.8987 9.98L13.7839 8.38781C14.4651 7.81249 14.1097 6.70073 13.2211 6.62723L10.7157 6.42L9.71119 4.10951C9.36264 3.30776 8.22557 3.30777 7.87702 4.10951L6.87256 6.42L4.36713 6.62723C3.47852 6.70073 3.12312 7.81249 3.80433 8.38781L5.68955 9.98L5.11541 12.3794C4.91016 13.2371 5.83498 13.9212 6.59509 13.4739L8.79411 12.18Z" fill="white"/>
</mask>
<g mask="url(#mask0)">
<rect x="0.588226" width="16.4118" height="16" fill="#9B8869"/>
</g>
</svg>
