<svg width="130" height="22" viewBox="0 0 130 22" fill="none" xmlns="http://www.w3.org/2000/svg">
<path fill-rule="evenodd" clip-rule="evenodd" d="M8.01783 7.38541C8.01783 7.68968 9.40579 8.28438 10.2547 8.28438C11.8853 8.28438 13.6505 6.09919 13.6505 3.77569C13.6505 1.56283 12.0604 0 9.85048 0C5.41709 0 0 6.3343 0 11.4239C0 14.84 2.45251 17.7167 5.36319 17.7167C7.42825 17.7167 9.67595 16.2671 11.6357 13.8593C11.5037 14.3586 11.429 14.7264 11.429 14.9091C11.429 15.7666 13.1538 16.5826 13.6524 16.5826C13.8007 16.5826 13.895 16.5134 13.895 16.2922C13.895 15.324 15.7815 12.0186 17.5737 9.70891C16.8865 11.2579 16.1588 13.7197 16.1588 15.0751C16.1588 15.7804 17.5064 16.5826 18.9078 16.5826C19.1271 16.5826 20.2178 15.111 21.3261 13.4754C21.3583 15.1978 22.5174 16.5826 23.8992 16.5826C25.7588 16.5826 27.7531 14.0516 28.2652 11.4792C28.6751 11.4792 29.0964 11.3988 29.4966 11.2603C28.2761 14.7004 26.9077 19.2231 26.9077 19.8051C26.9077 20.4413 28.5787 21.5754 29.3737 21.5754C29.6028 21.5754 29.7645 21.4647 29.7645 21.2573C29.7645 21.1328 29.7241 21.0775 29.6298 21.0775C29.5354 21.0775 29.4815 20.9807 29.4815 20.787C29.4815 20.0679 30.2362 17.8273 31.3007 15.5868C31.5972 16.0017 32.9177 16.5826 33.7397 16.5826C35.8554 16.5826 38.2405 12.6824 38.2405 9.01739C38.2405 8.46418 36.7313 7.30243 36.0575 7.30243C34.9795 7.30243 33.1468 10.2068 31.8397 12.6686C32.5 10.6909 33.3894 8.61631 33.6589 8.61631C33.7128 8.61631 33.7667 8.54716 33.7667 8.47801C33.7667 8.0631 32.1092 7.30243 31.2603 7.30243C31.04 7.30243 30.4983 8.53726 29.8691 10.2327C29.4312 10.5047 28.9119 10.6632 28.373 10.6632C28.3864 10.5249 28.3864 10.3866 28.3864 10.2483C28.3864 9.91637 28.3595 9.6121 28.3056 9.36315C28.3325 9.37698 28.373 9.39081 28.4134 9.39081C28.5482 9.39081 28.7368 9.22485 28.7368 8.94824C28.7368 8.11842 27.0389 7.1503 25.624 7.1503C24.3669 7.1503 22.7203 9.01593 21.8764 11.0191C20.6885 12.7823 18.9426 15.3102 18.8135 15.3102C18.7865 15.3102 18.7731 15.2272 18.7731 15.0889C18.7731 13.5123 20.5518 9.04506 21.0773 9.04506C21.1582 9.04506 21.2525 8.92058 21.2525 8.78228C21.2525 8.18757 19.339 7.2886 18.9078 7.2886C18.1262 7.2886 15.9567 10.0823 14.5553 12.5441C15.8759 8.89292 18.2206 3.62355 18.8135 3.62355C18.8943 3.62355 18.9617 3.54057 18.9617 3.44376C18.9617 3.00119 17.4255 2.24052 16.617 2.24052C15.855 2.24052 13.8521 7.13771 12.5695 10.8734C10.5221 14.1023 7.72045 16.1677 5.17453 16.1677C3.30146 16.1677 2.19648 15.0751 2.19648 13.208C2.19648 8.8376 8.35471 1.67347 12.2087 1.67347C12.2087 4.24592 9.97176 7.24711 8.34124 7.24711C8.09868 7.24711 8.01783 7.31626 8.01783 7.38541ZM25.8396 9.66742C24.802 10.7739 23.9396 12.8346 23.9396 14.3697C23.9396 15.2134 24.1956 15.407 24.5056 15.407C25.5297 15.407 26.9176 13.2633 27.3893 11.3271C26.5538 11.0505 25.9339 10.4143 25.8396 9.66742ZM27.524 10.5111C27.5375 10.3728 27.5375 10.2483 27.5375 10.1238C27.5375 9.48763 27.3758 9.18336 27.1737 9.18336C26.9985 9.18336 26.8503 9.36315 26.8503 9.65359C26.8503 10.027 27.1063 10.3313 27.524 10.5111ZM31.4489 15.2687C32.244 13.6921 35.0738 8.71313 35.8149 8.15991C35.8149 11.7696 33.6589 15.1442 31.4489 15.2687ZM41.4198 12.6686C42.727 10.2068 44.5596 7.30243 45.6376 7.30243C46.3114 7.30243 47.8206 8.46418 47.8206 9.01739C47.8206 12.6824 45.4355 16.5826 43.3199 16.5826C42.4979 16.5826 41.1773 16.0017 40.8808 15.5868C39.8163 17.8273 39.0617 20.0679 39.0617 20.787C39.0617 20.9807 39.1156 21.0775 39.2099 21.0775C39.3042 21.0775 39.3446 21.1328 39.3446 21.2573C39.3446 21.4647 39.1829 21.5754 38.9539 21.5754C38.1588 21.5754 36.4879 20.4413 36.4879 19.8051C36.4879 18.8508 40.1666 7.30243 40.8404 7.30243C41.6894 7.30243 43.3468 8.0631 43.3468 8.47801C43.3468 8.54716 43.2929 8.61631 43.239 8.61631C42.9695 8.61631 42.0801 10.6909 41.4198 12.6686ZM41.0291 15.2687C41.8241 13.6921 44.6539 8.71313 45.3951 8.15991C45.3951 11.7696 43.239 15.1442 41.0291 15.2687ZM55.5007 9.45997C55.5007 8.33971 54.1263 7.2886 52.9269 7.2886C50.7709 7.2886 48.1028 10.677 48.1028 13.1665C48.1028 15.0889 49.6794 16.5826 51.1752 16.5826C52.564 16.5826 54.0503 15.3081 55.289 13.8602C55.1738 14.3001 55.1064 14.638 55.1064 14.8123C55.1064 15.7528 57.0468 16.5826 57.5454 16.5826C57.6936 16.5826 57.788 16.5134 57.788 16.2922C57.788 15.3638 59.5213 12.279 61.264 9.99136C61.2761 9.99258 61.2882 9.99372 61.3003 9.99476C61.1723 10.3825 61.1029 10.7896 61.1029 11.1611C61.1029 11.4968 61.6654 11.9479 62.3457 12.269C61.589 14.2009 61.0492 15.8827 61.0492 16.5398C61.0492 17.4906 62.1576 18.629 62.8739 18.629C63.1172 18.629 63.2794 18.4951 63.2794 18.0531C63.2794 17.8656 63.3065 17.638 63.3605 17.3701C64.523 18.1871 65.7801 18.6424 66.9966 18.6424C70.6867 18.6424 74.2957 15.5353 74.2957 12.3345C74.2957 10.714 73.363 9.58905 71.7951 9.09353C74.4308 8.16944 75.9853 6.58912 75.9853 4.58024C75.9853 1.84817 73.1197 0 68.9295 0C63.3741 0 58.9811 3.28117 58.9811 6.93733C58.9811 7.13605 58.9941 7.32909 59.0194 7.51521C58.6404 7.38537 58.2766 7.30243 58.0575 7.30243C57.6763 7.30243 56.8099 9.30262 56.1139 11.2563C54.8539 13.0569 52.9223 15.407 51.5794 15.407C50.973 15.407 50.5957 14.923 50.5957 14.1208C50.5957 12.2122 52.6979 9.58444 54.1667 9.41848C53.9241 11.1196 52.1993 12.2952 51.3234 12.2952C51.1482 12.2952 51.0539 12.3367 51.0539 12.392C51.0539 12.5718 51.8489 12.9729 52.3879 12.9729C53.439 12.9729 55.5007 11.3686 55.5007 9.45997ZM59.8474 9.3165C59.4598 10.0369 58.9478 11.2283 58.5156 12.4197C59.0568 11.4939 59.6966 10.5277 60.3233 9.68739C60.15 9.58554 59.9908 9.461 59.8474 9.3165ZM60.8621 8.99279C61.6699 7.99482 62.3981 7.30243 62.7873 7.30243C63.0312 7.30243 63.6876 7.5572 64.2481 7.88937C65.3255 5.64277 66.3717 3.85705 66.8344 3.85705C67.8346 3.85705 69.0376 4.91506 69.0376 5.58468C69.0376 5.81236 68.9025 5.93289 68.8078 5.93289C68.503 5.93289 67.7301 7.13076 66.8717 8.78124C66.9481 8.73898 67.0256 8.71313 67.0994 8.71313C67.1964 8.71313 67.2886 8.76787 67.3497 8.83258C71.3153 8.43094 73.9577 6.9724 73.9577 5.0222C73.9577 3.34813 71.9978 2.24994 68.916 2.24994C64.3473 2.24994 60.2517 4.6606 60.2517 7.40607C60.2517 8.06174 60.483 8.63625 60.8621 8.99279ZM65.6921 11.1635C65.9166 10.9354 66.1394 10.6996 66.3465 10.47C67.586 10.0546 68.7193 9.8569 69.6864 9.8569C71.5112 9.8569 72.6872 10.5801 72.6872 11.8524C72.6872 14.1425 68.9295 16.7273 65.7125 16.7273C64.9555 16.7273 64.2527 16.58 63.6309 16.2987C64.0714 14.8679 64.8555 12.9541 65.6921 11.1635ZM84.8029 2.85261C84.1063 2.85261 81.9118 7.89609 80.5712 11.5482C79.3781 13.214 77.6908 15.5085 77.5638 15.5085C77.5368 15.5085 77.5232 15.4282 77.5232 15.3612C77.5232 14.705 79.1858 9.34798 79.6994 9.34798C79.7535 9.34798 79.8346 9.26763 79.8346 9.1471C79.8346 8.61139 78.3748 7.74088 77.6043 7.74088C76.9826 7.74088 74.7388 14.1291 74.7388 15.1336C74.7388 15.9639 76.2256 16.7407 77.6314 16.7407C77.8271 16.7407 78.6768 15.6961 79.6253 14.409C79.5386 14.7378 79.4908 14.9829 79.4908 15.1202C79.4908 15.9371 81.2209 16.7407 81.7075 16.7407C81.8562 16.7407 81.9508 16.6737 81.9508 16.4594C81.9508 15.9505 82.478 14.8121 83.2485 13.5131C83.5323 15.1871 85.2219 16.7407 86.9115 16.7407C87.1333 16.7407 88.1921 15.3826 89.2839 13.8488C89.4968 15.5054 90.9526 16.7407 92.3391 16.7407C94.3353 16.7407 96.5325 14.2065 97.9117 12.2757C98.1755 12.7437 98.5369 13.2453 98.9588 13.7139C98.7425 13.8211 98.5263 13.9282 98.3505 14.0086C96.4582 14.8523 95.8094 15.7764 95.8094 16.58C95.8094 17.7987 97.2962 18.7495 98.1883 18.7495C99.2967 18.7495 101.797 17.2362 101.797 15.8835C101.797 15.2943 101.324 14.4639 100.851 13.6738C101.913 13.0651 103.074 12.3616 104.064 11.741C103.494 13.3865 103.106 14.7176 103.106 15.1202C103.106 15.9505 104.836 16.7407 105.336 16.7407C105.485 16.7407 105.58 16.6737 105.58 16.4594C105.58 15.5219 107.472 12.3211 109.27 10.0846C108.58 11.5845 107.85 13.9684 107.85 15.2809C107.85 15.9639 109.202 16.7407 110.608 16.7407C110.828 16.7407 111.922 15.3157 113.033 13.7318C113.066 15.3997 114.228 16.7407 115.615 16.7407C117.48 16.7407 119.48 14.2898 119.994 11.7988C120.405 11.7988 120.828 11.7209 121.229 11.5869C120.005 14.918 118.632 19.2975 118.632 19.8611C118.632 20.4772 120.308 21.5754 121.106 21.5754C121.336 21.5754 121.498 21.4682 121.498 21.2673C121.498 21.1468 121.457 21.0932 121.363 21.0932C121.268 21.0932 121.214 20.9995 121.214 20.812C121.214 20.1156 121.971 17.946 123.039 15.7764C123.336 16.1782 124.661 16.7407 125.485 16.7407C127.608 16.7407 130 12.964 130 9.41495C130 8.87925 128.486 7.75427 127.81 7.75427C126.729 7.75427 124.891 10.5667 123.579 12.9506C124.242 11.0354 125.134 9.02656 125.404 9.02656C125.458 9.02656 125.512 8.9596 125.512 8.89264C125.512 8.49086 123.85 7.75427 122.998 7.75427C122.777 7.75427 122.234 8.95001 121.603 10.5918C121.164 10.8552 120.643 11.0087 120.102 11.0087C120.116 10.8747 120.116 10.7408 120.116 10.6069C120.116 10.2855 120.089 9.99083 120.035 9.74976C120.062 9.76315 120.102 9.77654 120.143 9.77654C120.278 9.77654 120.467 9.61584 120.467 9.34798C120.467 8.54443 118.764 7.60696 117.345 7.60696C116.084 7.60696 114.432 9.41352 113.586 11.3532C112.394 13.0607 110.643 15.5085 110.513 15.5085C110.486 15.5085 110.473 15.4282 110.473 15.2943C110.473 13.7675 112.257 9.44173 112.784 9.44173C112.865 9.44173 112.96 9.3212 112.96 9.18727C112.96 8.6114 111.04 7.74088 110.608 7.74088C109.824 7.74088 107.648 10.4462 106.242 12.83C107.566 9.29441 109.918 4.19186 110.513 4.19186C110.594 4.19186 110.662 4.11151 110.662 4.01776C110.662 3.5892 109.121 2.85261 108.31 2.85261C107.595 2.85261 105.793 6.99613 104.511 10.4914C103.406 11.2015 101.812 12.1688 100.405 12.9506C100.135 12.4952 99.932 12.0935 99.932 11.8256C99.932 10.9819 102.027 9.1471 102.892 9.1471C103.163 9.1471 103.46 9.33459 103.46 9.56227C103.46 9.69619 103.555 9.78994 103.663 9.78994C103.811 9.78994 103.987 9.64262 103.987 9.24084C103.987 8.07569 102.46 7.11143 101.541 7.11143C100.081 7.11143 97.4449 9.54887 97.4449 10.9283C97.4449 11.0391 97.4627 11.1637 97.4964 11.299C96.2454 13.0679 94.1661 15.6023 92.7447 15.6023C92.1364 15.6023 91.7579 15.1336 91.7579 14.3568C91.7579 12.5086 93.8666 9.96404 95.3399 9.80333C95.0966 11.4506 93.3664 12.589 92.4878 12.589C92.3121 12.589 92.2175 12.6292 92.2175 12.6827C92.2175 12.8568 93.015 13.2452 93.5557 13.2452C94.61 13.2452 96.6781 11.6917 96.6781 9.84351C96.6781 8.75871 95.2993 7.74088 94.0963 7.74088C92.375 7.74088 90.3282 9.81955 89.5646 11.8835C88.4073 13.5162 86.9614 15.5085 86.8439 15.5085C86.1951 15.5085 85.668 14.4773 85.668 13.5934C87.2359 13.5934 89.277 10.3658 89.277 9.12031C89.277 8.73193 87.6279 7.74088 87.1007 7.74088C86.2357 7.74088 84.0865 10.3658 82.6672 12.7229C84.0189 9.18727 86.3844 4.13829 86.9656 4.13829C87.0467 4.13829 87.1548 4.03115 87.1548 3.9374C87.1548 3.5892 85.6004 2.85261 84.8029 2.85261ZM80.524 7.13822C80.524 7.29893 80.4969 7.40607 80.0374 7.40607C78.9425 7.40607 78.172 6.76323 78.172 5.89271C78.172 4.78113 79.3885 2.85261 80.132 2.85261C80.6456 2.85261 82.0919 3.74991 82.0919 4.16508C82.0919 4.25882 81.9973 4.36596 81.8892 4.36596C81.4026 4.36596 80.524 6.2677 80.524 7.13822ZM83.8702 12.5354C84.6677 11.2899 85.6274 10.0176 86.479 9.10692C86.4925 9.10692 86.4925 9.1471 86.4925 9.21406C86.4925 10.1114 84.9786 12.6292 84.1541 12.6292C84.0595 12.6292 83.9513 12.589 83.8702 12.5354ZM96.9854 16.9951C96.715 16.9951 96.5258 16.8746 96.5258 16.6469C96.5258 16.2719 97.0665 15.6157 98.7155 14.8255C98.9318 14.7184 99.1751 14.5979 99.4319 14.4639C99.5536 14.6916 99.6211 14.8925 99.6211 15.0666C99.6211 15.9237 97.7693 16.9951 96.9854 16.9951ZM115.655 14.5979C115.655 13.1113 116.52 11.1158 117.561 10.0444C117.656 10.7676 118.277 11.3836 119.115 11.6515C118.642 13.5265 117.25 15.6023 116.223 15.6023C115.912 15.6023 115.655 15.4148 115.655 14.5979ZM119.264 10.4864V10.4866C119.264 10.607 119.264 10.7275 119.251 10.8613C118.832 10.6872 118.575 10.3926 118.575 10.031C118.575 9.74976 118.723 9.57566 118.899 9.57566C119.102 9.57566 119.264 9.87029 119.264 10.4864ZM123.188 15.4684C123.985 13.9416 126.824 9.12031 127.567 8.58461C127.567 12.0801 125.404 15.3478 123.188 15.4684Z" fill="#BAA480"/>
</svg>
