<svg width="16" height="16" viewBox="0 0 16 16" fill="none" xmlns="http://www.w3.org/2000/svg">
<path fill-rule="evenodd" clip-rule="evenodd" d="M10.7095 10.0536L10.9718 10.3066H11.712L15.6901 14.2926C16.0753 14.6786 16.075 15.3038 15.6894 15.6894C15.3038 16.075 14.6786 16.0753 14.2926 15.6901L10.3066 11.712V10.9718L10.0536 10.7095C8.98545 11.6277 7.59875 12.1805 6.09024 12.1805C2.72656 12.1805 0 9.45393 0 6.09024C0 2.72656 2.72656 0 6.09024 0C9.45393 0 12.1805 2.72656 12.1805 6.09024C12.1805 7.59875 11.6277 8.98545 10.7095 10.0536ZM6.09024 1.87392C3.75721 1.87392 1.87392 3.75721 1.87392 6.09024C1.87392 8.42327 3.75721 10.3066 6.09024 10.3066C8.42327 10.3066 10.3066 8.42327 10.3066 6.09024C10.3066 3.75721 8.42327 1.87392 6.09024 1.87392Z" fill="#9B8869"/>
</svg>
