<svg xmlns="http://www.w3.org/2000/svg" xmlns:xlink="http://www.w3.org/1999/xlink"><symbol id="icon-img" viewBox="0 0 11 11">
<path fill-rule="evenodd" clip-rule="evenodd" d="M5 0H0V5H5V0ZM5 6H0V11H5V6ZM6 6H11V11H6V6ZM11 0H6V5H11V0Z" fill="#BA4F4F"/>
</symbol><symbol id="icon-list" viewBox="0 0 12 11">
<mask id="path-1-inside-1" fill="white">
<path fill-rule="evenodd" clip-rule="evenodd" d="M0 0H1V1H0V0ZM12 0H3V1H12V0ZM12 5H3V6H12V5ZM3 10H12V11H3V10ZM1 5H0V6H1V5ZM0 10H1V11H0V10Z"/>
</mask>
<path fill-rule="evenodd" clip-rule="evenodd" d="M0 0H1V1H0V0ZM12 0H3V1H12V0ZM12 5H3V6H12V5ZM3 10H12V11H3V10ZM1 5H0V6H1V5ZM0 10H1V11H0V10Z" fill="#9B8869"/>
<path d="M1 0H2V-1H1V0ZM0 0V-1H-1V0H0ZM1 1V2H2V1H1ZM0 1H-1V2H0V1ZM3 0V-1H2V0H3ZM12 0H13V-1H12V0ZM3 1H2V2H3V1ZM12 1V2H13V1H12ZM3 5V4H2V5H3ZM12 5H13V4H12V5ZM3 6H2V7H3V6ZM12 6V7H13V6H12ZM12 10H13V9H12V10ZM3 10V9H2V10H3ZM12 11V12H13V11H12ZM3 11H2V12H3V11ZM0 5V4H-1V5H0ZM1 5H2V4H1V5ZM0 6H-1V7H0V6ZM1 6V7H2V6H1ZM1 10H2V9H1V10ZM0 10V9H-1V10H0ZM1 11V12H2V11H1ZM0 11H-1V12H0V11ZM1 -1H0V1H1V-1ZM2 1V0H0V1H2ZM0 2H1V0H0V2ZM-1 0V1H1V0H-1ZM3 1H12V-1H3V1ZM4 1V0H2V1H4ZM12 0H3V2H12V0ZM11 0V1H13V0H11ZM3 6H12V4H3V6ZM4 6V5H2V6H4ZM12 5H3V7H12V5ZM11 5V6H13V5H11ZM12 9H3V11H12V9ZM13 11V10H11V11H13ZM3 12H12V10H3V12ZM2 10V11H4V10H2ZM0 6H1V4H0V6ZM1 6V5H-1V6H1ZM1 5H0V7H1V5ZM0 5V6H2V5H0ZM1 9H0V11H1V9ZM2 11V10H0V11H2ZM0 12H1V10H0V12ZM-1 10V11H1V10H-1Z" fill="black" mask="url(#path-1-inside-1)"/>
</symbol><symbol id="icon-minus" viewBox="0 0 14 15">
<path fill-rule="evenodd" clip-rule="evenodd" d="M13.3506 6.82542C13.5822 6.82542 13.77 7.01322 13.77 7.24487C13.77 7.47653 13.5822 7.66432 13.3506 7.66432L0.767023 7.66433C0.535366 7.66433 0.347571 7.47653 0.347571 7.24487C0.347571 7.01322 0.535366 6.82542 0.767023 6.82542L13.3506 6.82542Z" fill="#9B8869"/>
</symbol><symbol id="icon-star" viewBox="0 0 24 24">
<path fill-rule="evenodd" clip-rule="evenodd" d="M12 18.27L16.151 20.7754C16.9083 21.2325 17.8425 20.5535 17.6416 19.692L16.54 14.97L20.2086 11.7919C20.8772 11.2127 20.5198 10.1144 19.6384 10.0396L14.81 9.63L12.9207 5.17237C12.5761 4.35934 11.4239 4.35934 11.0793 5.17237L9.19 9.63L4.36163 10.0396C3.4802 10.1144 3.1228 11.2127 3.79139 11.7919L7.46 14.97L6.35841 19.692C6.15745 20.5535 7.09168 21.2325 7.849 20.7754L12 18.27Z" fill="#9B8869"/>
<mask id="mask0" mask-type="alpha" maskUnits="userSpaceOnUse" x="3" y="4" width="18" height="17">
<path fill-rule="evenodd" clip-rule="evenodd" d="M12 18.27L16.151 20.7754C16.9083 21.2325 17.8425 20.5535 17.6416 19.692L16.54 14.97L20.2086 11.7919C20.8772 11.2127 20.5198 10.1144 19.6384 10.0396L14.81 9.63L12.9207 5.17237C12.5761 4.35934 11.4239 4.35934 11.0793 5.17237L9.19 9.63L4.36163 10.0396C3.4802 10.1144 3.1228 11.2127 3.79139 11.7919L7.46 14.97L6.35841 19.692C6.15745 20.5535 7.09168 21.2325 7.849 20.7754L12 18.27Z" fill="white"/>
</mask>
<g mask="url(#mask0)">
<rect width="24" height="24" fill="#9B8869"/>
</g>
</symbol></svg>