<svg xmlns="http://www.w3.org/2000/svg" xmlns:xlink="http://www.w3.org/1999/xlink"><symbol id="icon-basket" viewBox="0 0 22 19">
<path fill-rule="evenodd" clip-rule="evenodd" d="M0 1C0 1.55228 0.447715 2 1 2H3.17058L6.2322 8.57892C6.2306 8.58237 6.22901 8.58584 6.22745 8.58932L5.17669 10.9222C4.72307 11.9293 5.17177 13.1135 6.17889 13.5671C6.4371 13.6834 6.71706 13.7435 7.00025 13.7435H17.5021C18.0544 13.7435 18.5021 13.2958 18.5021 12.7435C18.5021 12.1913 18.0544 11.7435 17.5021 11.7435H7.00025L7.66972 10.2572H16.7133L20.939 2.87668C21.2135 2.39739 21.0474 1.7864 20.5681 1.51198C20.0888 1.23757 19.4778 1.40365 19.2034 1.88294L15.5538 8.25721H8.28845L4.44581 0H1C0.447715 0 0 0.447715 0 1ZM10 17C10 18.1046 9.10457 19 8 19C6.89543 19 6 18.1046 6 17C6 15.8954 6.89543 15 8 15C9.10457 15 10 15.8954 10 17ZM16 19C17.1046 19 18 18.1046 18 17C18 15.8954 17.1046 15 16 15C14.8954 15 14 15.8954 14 17C14 18.1046 14.8954 19 16 19Z" fill="#9B8869"/>
</symbol><symbol id="icon-fb" viewBox="0 0 10 19">
<path d="M6.96195 3.43458H9.32129V0H6.54782V0.0123865C3.18728 0.12968 2.49853 1.99126 2.43782 3.94648H2.43091V5.66154H0.142578V9.02503H2.43091V18.041H5.87955V9.02503H8.70456L9.25028 5.66154H5.88069V4.62535C5.88069 3.96457 6.32686 3.43458 6.96195 3.43458Z" fill="#6A6454"/>
</symbol><symbol id="icon-img" viewBox="0 0 11 11">
<path fill-rule="evenodd" clip-rule="evenodd" d="M5 0H0V5H5V0ZM5 6H0V11H5V6ZM6 6H11V11H6V6ZM11 0H6V5H11V0Z" fill="#BA4F4F"/>
</symbol><symbol id="icon-inst" viewBox="0 0 18 18">
<path fill-rule="evenodd" clip-rule="evenodd" d="M0.285645 4C0.285645 1.79086 2.07651 0 4.28565 0H13.4285C15.6376 0 17.4285 1.79086 17.4285 4V13.1429C17.4285 15.352 15.6376 17.1429 13.4285 17.1429H4.28564C2.0765 17.1429 0.285645 15.352 0.285645 13.1429V4ZM14.4182 4.00003C14.4182 4.63122 13.9065 5.14289 13.2753 5.14289C12.6441 5.14289 12.1324 4.63122 12.1324 4.00003C12.1324 3.36885 12.6441 2.85718 13.2753 2.85718C13.9065 2.85718 14.4182 3.36885 14.4182 4.00003ZM11.1426 8.56224C11.1426 9.8246 10.1193 10.8479 8.85691 10.8479C7.59454 10.8479 6.57119 9.8246 6.57119 8.56224C6.57119 7.29987 7.59454 6.27652 8.85691 6.27652C10.1193 6.27652 11.1426 7.29987 11.1426 8.56224ZM13.1426 8.56224C13.1426 10.9292 11.2238 12.8479 8.85691 12.8479C6.48997 12.8479 4.57119 10.9292 4.57119 8.56224C4.57119 6.1953 6.48997 4.27652 8.85691 4.27652C11.2238 4.27652 13.1426 6.1953 13.1426 8.56224Z" fill="#6A6454"/>
</symbol><symbol id="icon-list" viewBox="0 0 12 11">
<mask id="path-1-inside-1" fill="white">
<path fill-rule="evenodd" clip-rule="evenodd" d="M0 0H1V1H0V0ZM12 0H3V1H12V0ZM12 5H3V6H12V5ZM3 10H12V11H3V10ZM1 5H0V6H1V5ZM0 10H1V11H0V10Z"/>
</mask>
<path fill-rule="evenodd" clip-rule="evenodd" d="M0 0H1V1H0V0ZM12 0H3V1H12V0ZM12 5H3V6H12V5ZM3 10H12V11H3V10ZM1 5H0V6H1V5ZM0 10H1V11H0V10Z" fill="#9B8869"/>
<path d="M1 0H2V-1H1V0ZM0 0V-1H-1V0H0ZM1 1V2H2V1H1ZM0 1H-1V2H0V1ZM3 0V-1H2V0H3ZM12 0H13V-1H12V0ZM3 1H2V2H3V1ZM12 1V2H13V1H12ZM3 5V4H2V5H3ZM12 5H13V4H12V5ZM3 6H2V7H3V6ZM12 6V7H13V6H12ZM12 10H13V9H12V10ZM3 10V9H2V10H3ZM12 11V12H13V11H12ZM3 11H2V12H3V11ZM0 5V4H-1V5H0ZM1 5H2V4H1V5ZM0 6H-1V7H0V6ZM1 6V7H2V6H1ZM1 10H2V9H1V10ZM0 10V9H-1V10H0ZM1 11V12H2V11H1ZM0 11H-1V12H0V11ZM1 -1H0V1H1V-1ZM2 1V0H0V1H2ZM0 2H1V0H0V2ZM-1 0V1H1V0H-1ZM3 1H12V-1H3V1ZM4 1V0H2V1H4ZM12 0H3V2H12V0ZM11 0V1H13V0H11ZM3 6H12V4H3V6ZM4 6V5H2V6H4ZM12 5H3V7H12V5ZM11 5V6H13V5H11ZM12 9H3V11H12V9ZM13 11V10H11V11H13ZM3 12H12V10H3V12ZM2 10V11H4V10H2ZM0 6H1V4H0V6ZM1 6V5H-1V6H1ZM1 5H0V7H1V5ZM0 5V6H2V5H0ZM1 9H0V11H1V9ZM2 11V10H0V11H2ZM0 12H1V10H0V12ZM-1 10V11H1V10H-1Z" fill="black" mask="url(#path-1-inside-1)"/>
</symbol><symbol id="icon-logout" viewBox="0 0 16 18">
<path fill-rule="evenodd" clip-rule="evenodd" d="M7.49487 0C6.94259 0 6.49487 0.447715 6.49487 1C6.49487 1.55228 6.94259 2 7.49487 2H13.4949V16H7.49487C6.94259 16 6.49487 16.4477 6.49487 17C6.49487 17.5523 6.94259 18 7.49487 18H13.4949C14.5994 18 15.4949 17.1046 15.4949 16V2C15.4949 0.895431 14.5994 0 13.4949 0H7.49487ZM4.35075 5.14917C4.70654 4.79337 5.28341 4.79338 5.6392 5.14917C5.99477 5.50474 5.99503 6.08116 5.63978 6.43705L3.49326 8.58742H10.9325C11.4364 8.58742 11.845 8.99596 11.845 9.49992C11.845 10.0039 11.4364 10.4124 10.9325 10.4124H3.49326L5.63978 12.5628C5.99503 12.9187 5.99477 13.4951 5.6392 13.8507C5.2834 14.2065 4.70654 14.2065 4.35075 13.8507L0 9.49992L4.35075 5.14917Z" fill="#BA4F4F"/>
</symbol><symbol id="icon-search" viewBox="0 0 18 18">
<path fill-rule="evenodd" clip-rule="evenodd" d="M11.43 10.73L11.71 11H12.5L16.7843 15.2929C17.1742 15.6835 17.1738 16.3162 16.7836 16.7064L16.7064 16.7836C16.3162 17.1738 15.6835 17.1742 15.2929 16.7843L11 12.5V11.71L10.73 11.43C9.59 12.41 8.11 13 6.5 13C2.91 13 0 10.09 0 6.5C0 2.91 2.91 0 6.5 0C10.09 0 13 2.91 13 6.5C13 8.11 12.41 9.59 11.43 10.73ZM6.5 2C4.01 2 2 4.01 2 6.5C2 8.99 4.01 11 6.5 11C8.99 11 11 8.99 11 6.5C11 4.01 8.99 2 6.5 2Z" fill="#9B8869"/>
</symbol><symbol id="icon-star" viewBox="0 0 24 24">
<path fill-rule="evenodd" clip-rule="evenodd" d="M12 18.27L16.151 20.7754C16.9083 21.2325 17.8425 20.5535 17.6416 19.692L16.54 14.97L20.2086 11.7919C20.8772 11.2127 20.5198 10.1144 19.6384 10.0396L14.81 9.63L12.9207 5.17237C12.5761 4.35934 11.4239 4.35934 11.0793 5.17237L9.19 9.63L4.36163 10.0396C3.4802 10.1144 3.1228 11.2127 3.79139 11.7919L7.46 14.97L6.35841 19.692C6.15745 20.5535 7.09168 21.2325 7.849 20.7754L12 18.27Z" fill="#9B8869"/>
<mask id="mask0" mask-type="alpha" maskUnits="userSpaceOnUse" x="3" y="4" width="18" height="17">
<path fill-rule="evenodd" clip-rule="evenodd" d="M12 18.27L16.151 20.7754C16.9083 21.2325 17.8425 20.5535 17.6416 19.692L16.54 14.97L20.2086 11.7919C20.8772 11.2127 20.5198 10.1144 19.6384 10.0396L14.81 9.63L12.9207 5.17237C12.5761 4.35934 11.4239 4.35934 11.0793 5.17237L9.19 9.63L4.36163 10.0396C3.4802 10.1144 3.1228 11.2127 3.79139 11.7919L7.46 14.97L6.35841 19.692C6.15745 20.5535 7.09168 21.2325 7.849 20.7754L12 18.27Z" fill="white"/>
</mask>
<g mask="url(#mask0)">
<rect width="24" height="24" fill="#9B8869"/>
</g>
</symbol><symbol id="icon-user" viewBox="0 0 18 21">
<path fill-rule="evenodd" clip-rule="evenodd" d="M9 10.5326C11.7623 10.5326 14 8.22309 14 5.37215C14 2.52121 11.7623 0.21167 9 0.21167C6.23772 0.21167 4 2.52121 4 5.37215C4 8.22309 6.23772 10.5326 9 10.5326ZM9 2.27586C10.6577 2.27586 12 3.66123 12 5.37215C12 7.08307 10.6577 8.46843 9 8.46843C7.34228 8.46843 6 7.08307 6 5.37215C6 3.66123 7.34228 2.27586 9 2.27586ZM18 19.8215C18 20.3915 17.5523 20.8536 17 20.8536C16.4477 20.8536 16 20.3915 16 19.8215V17.7573C16 16.2503 12.156 14.661 9 14.661C5.844 14.661 2 16.2503 2 17.7573V19.8215C2 20.3915 1.55228 20.8536 1 20.8536C0.447715 20.8536 0 20.3915 0 19.8215V17.7573C0 14.5942 4.83098 12.5968 9 12.5968C13.169 12.5968 18 14.5942 18 17.7573V19.8215Z" fill="#9B8869"/>
</symbol><symbol id="icon-vk" viewBox="0 0 22 13">
<path fill-rule="evenodd" clip-rule="evenodd" d="M10.4666 12.5546H11.7453C11.7453 12.5546 12.1316 12.5128 12.3288 12.3033C12.5103 12.111 12.5045 11.7498 12.5045 11.7498C12.5045 11.7498 12.4795 10.0589 13.2758 9.80985C14.0609 9.56457 15.0689 11.4441 16.1374 12.1668C16.9453 12.7138 17.5593 12.5938 17.5593 12.5938L20.4161 12.5546C20.4161 12.5546 21.9106 12.4639 21.202 11.3059C21.1439 11.2111 20.7893 10.4493 19.0779 8.88367C17.2866 7.24511 17.5264 7.51014 19.6843 4.67578C20.9984 2.94963 21.5238 1.8958 21.3597 1.44444C21.2032 1.01455 20.2367 1.12818 20.2367 1.12818L17.02 1.14793C17.02 1.14793 16.7815 1.11587 16.6046 1.22005C16.4318 1.32223 16.3206 1.56036 16.3206 1.56036C16.3206 1.56036 15.8115 2.89611 15.1325 4.03209C13.7002 6.42911 13.1274 6.55562 12.8934 6.40679C12.3488 6.0599 12.4847 5.01322 12.4847 4.26964C12.4847 1.94675 12.8422 0.978205 11.7886 0.727483C11.4389 0.644196 11.1816 0.589243 10.2874 0.58037C9.13968 0.568636 8.16822 0.583805 7.61816 0.849409C7.25223 1.026 6.96994 1.41954 7.14187 1.44215C7.35446 1.4702 7.83598 1.57009 8.09126 1.91269C8.42088 2.3546 8.40927 3.34718 8.40927 3.34718C8.40927 3.34718 8.59862 6.08165 7.96696 6.42139C7.53336 6.65436 6.93858 6.17868 5.6616 4.00404C5.00728 2.8901 4.51327 1.65882 4.51327 1.65882C4.51327 1.65882 4.41802 1.4287 4.24812 1.30563C4.04192 1.15651 3.75382 1.109 3.75382 1.109L0.697146 1.12875C0.697146 1.12875 0.238281 1.14135 0.0698369 1.33797C-0.0800202 1.51285 0.0579295 1.87462 0.0579295 1.87462C0.0579295 1.87462 2.451 7.39222 5.16062 10.1728C7.64517 12.7221 10.4666 12.5546 10.4666 12.5546Z" fill="#6A6454"/>
</symbol></svg>