<svg width="14" height="14" viewBox="0 0 14 14" fill="none" xmlns="http://www.w3.org/2000/svg">
<path fill-rule="evenodd" clip-rule="evenodd" d="M13.0208 0.636155C13.4113 1.02668 13.4113 1.65984 13.0208 2.05037L8.03553 7.03565L13.0209 12.021C13.4115 12.4116 13.4115 13.0447 13.0209 13.4353C12.6304 13.8258 11.9972 13.8258 11.6067 13.4353L6.62132 8.44986L1.70711 13.3641C1.31658 13.7546 0.683417 13.7546 0.292893 13.3641C-0.0976312 12.9736 -0.0976309 12.3404 0.292893 11.9499L5.20711 7.03565L0.293009 2.12155C-0.0975154 1.73102 -0.0975154 1.09786 0.293009 0.707336C0.683533 0.316811 1.3167 0.316812 1.70722 0.707336L6.62132 5.62143L11.6066 0.636155C11.9971 0.245631 12.6303 0.245631 13.0208 0.636155Z" fill="#9B8869"/>
</svg>
