<svg width="15" height="15" viewBox="0 0 15 15" fill="none" xmlns="http://www.w3.org/2000/svg">
<path fill-rule="evenodd" clip-rule="evenodd" d="M7.07103 13.5962C7.30269 13.5962 7.49048 13.4084 7.49048 13.1768L7.49048 7.66427L13.3505 7.66427C13.5822 7.66427 13.77 7.47648 13.77 7.24482C13.77 7.01316 13.5822 6.82537 13.3505 6.82537L7.49048 6.82537L7.49048 0.59321C7.49048 0.361553 7.30269 0.173758 7.07103 0.173758C6.83937 0.173758 6.65158 0.361553 6.65158 0.59321L6.65158 6.82537L0.76697 6.82537C0.535313 6.82537 0.347518 7.01316 0.347518 7.24482C0.347519 7.47648 0.535314 7.66427 0.766971 7.66427L6.65158 7.66427L6.65158 13.1768C6.65158 13.4084 6.83937 13.5962 7.07103 13.5962Z" fill="#9B8869"/>
</svg>
